<svg width="131" height="131" viewBox="0 0 131 131" fill="none" xmlns="http://www.w3.org/2000/svg">
<g clip-path="url(#clip0_14_134)">
<path d="M61.3184 98.4948C61.2606 100.503 65.873 100.507 80.9741 98.5757C96.958 96.5209 100.409 95.486 99.653 93.1977C98.5743 90.0637 61.4956 95.2501 61.3184 98.4948Z" fill="#F05F26"/>
<path d="M46.5836 28.8774C40.5785 29.1327 39.8501 30.195 36.493 43.5443C33.0112 57.3286 32.8659 59.9705 35.395 60.8369C39.9874 62.3891 42.0793 59.0343 47.2361 42.1994C51.0337 29.7768 51.016 28.6889 46.5836 28.8774Z" fill="#F05F26"/>
<path d="M80.6614 48.1119C76.341 48.2383 74.8048 49.1631 69.9323 54.4983C55.539 70.3795 43.998 80.5817 52.4027 80.167C55.8342 80.0211 58.8145 77.3447 76.2682 59.3281C85.8695 49.3228 86.4427 47.9807 80.6614 48.1119Z" fill="#F05F26"/>
</g>
<defs>
<clipPath id="clip0_14_134">
<rect width="96" height="96" fill="white" transform="translate(0 46.5417) rotate(-29)"/>
</clipPath>
</defs>
</svg>
