<svg width="254" height="381" viewBox="0 0 254 381" fill="none" xmlns="http://www.w3.org/2000/svg">
<path d="M254 359.424V347.692L196.31 381H216.63L254 359.424Z" fill="#F05F26"/>
<path d="M161.637 381L254 327.674V315.942L141.317 381H161.637Z" fill="#F05F26"/>
<path d="M106.644 381L254 295.924V284.192L86.3243 381H106.644Z" fill="#F05F26"/>
<path d="M51.6517 381L254 264.174V252.442L31.3316 381H51.6517Z" fill="#F05F26"/>
<path d="M0 379.071L254 232.424V220.692L0 367.339V379.071Z" fill="#F05F26"/>
<path d="M0 347.321L254 200.674V188.942L0 335.589V347.321Z" fill="#F05F26"/>
<path d="M0 315.571L254 168.924V157.192L0 303.839V315.571Z" fill="#F05F26"/>
<path d="M0 283.821L254 137.174V125.442L0 272.089V283.821Z" fill="#F05F26"/>
<path d="M0 252.071L254 105.424V93.6924L0 240.339V252.071Z" fill="#F05F26"/>
<path d="M0 220.321L254 73.6741V61.9424L0 208.589V220.321Z" fill="#F05F26"/>
<path d="M0 188.571L254 41.9242V30.1924L0 176.839V188.571Z" fill="#F05F26"/>
<path d="M0 156.821L254 10.1742V0H251.302L0 145.089V156.821Z" fill="#F05F26"/>
<path d="M0 125.071L216.629 0H196.31L0 113.339V125.071Z" fill="#F05F26"/>
<path d="M0 93.3211L161.637 0H141.317L0 81.5894V93.3211Z" fill="#F05F26"/>
<path d="M0 61.5711L106.644 0H86.3243L0 49.8393V61.5711Z" fill="#F05F26"/>
<path d="M0 29.821L51.6516 0H31.3316L0 18.0893V29.821Z" fill="#F05F26"/>
</svg>
