<svg width="297" height="100" viewBox="0 0 297 100" fill="none" xmlns="http://www.w3.org/2000/svg">
<path d="M100 80C98.0001 80 95.9861 79.528 94.2481 78.726C92.4091 77.8474 90.3983 77.387 88.3601 77.378C86.3126 77.3829 84.2917 77.8433 82.4441 78.726C80.6841 79.526 78.7361 80 76.6941 80C74.7162 79.9906 72.7635 79.5561 70.9681 78.726C69.1218 77.8439 67.1024 77.3835 65.0561 77.378C62.9661 77.378 60.9482 77.878 59.1661 78.726C57.3613 79.5571 55.3992 79.9915 53.4121 80C51.4329 79.9972 49.478 79.5624 47.6841 78.726C45.839 77.8445 43.821 77.3841 41.7761 77.378C39.6642 77.378 37.6721 77.878 35.8841 78.726C34.0821 79.5592 32.1215 79.9938 30.1361 80C28.1609 79.9955 26.2104 79.5607 24.4201 78.726C22.6121 77.878 20.6161 77.378 18.5061 77.378C16.3961 77.378 14.9701 77.878 13.1601 78.726C11.4221 79.528 10.0001 80 8.00015 80V71.244C10.0001 71.244 11.4221 70.772 13.1601 69.97C14.9681 69.144 16.6801 68.644 18.7901 68.644C20.9001 68.644 22.7521 69.144 24.5621 69.97C26.3021 70.77 28.1661 71.244 30.2081 71.244C32.2501 71.244 34.1601 70.772 35.9221 69.97C37.7608 69.1072 39.7651 68.6547 41.7962 68.644C43.9002 68.644 45.9081 69.144 47.6941 69.97C49.4321 70.77 51.3761 71.244 53.4161 71.244C55.4562 71.244 57.4021 70.772 59.1661 69.97C61.0091 69.1052 63.0184 68.6527 65.0541 68.644C67.1621 68.644 69.1781 69.144 70.9661 69.97C72.7021 70.77 74.6761 71.244 76.6921 71.244C78.6782 71.2381 80.6395 70.8035 82.4421 69.97C84.2957 69.1073 86.3137 68.655 88.3581 68.644C90.4441 68.644 92.4622 69.144 94.2461 69.97C95.9841 70.77 97.9981 71.244 99.9981 71.244L100 80ZM76.5761 43.428L93.5081 44.774L92.2301 35.968L79.8001 35.074C76.4401 34.908 76.9241 38.332 76.9241 38.332L76.5761 43.428ZM45.1782 41.422C48.2882 41.422 50.7921 38.874 50.7921 35.712C50.7921 32.548 48.2901 30.002 45.1782 30.002C42.0722 30.002 39.5742 32.55 39.5742 35.712C39.5742 38.874 42.0722 41.422 45.1782 41.422ZM10.5301 63.432C11.2382 63.2196 11.9284 62.9514 12.5941 62.63C14.4041 61.782 16.3981 61.284 18.5081 61.284C20.6181 61.284 22.6141 61.782 24.4221 62.63C26.1621 63.432 28.0961 63.904 30.1381 63.904C32.1242 63.898 34.0855 63.4635 35.8881 62.63C37.7277 61.749 39.7405 61.2891 41.7801 61.284C43.8841 61.284 45.9021 61.782 47.6881 62.63C49.482 63.4664 51.4369 63.9012 53.4161 63.904C55.4562 63.904 57.4041 63.434 59.1681 62.63C61.008 61.7518 63.0195 61.2921 65.0581 61.284C67.1661 61.284 69.1821 61.782 70.9701 62.63C72.7655 63.4601 74.7182 63.8946 76.6961 63.904C78.6822 63.898 80.6435 63.4635 82.4461 62.63C84.2939 61.748 86.3147 61.2883 88.3621 61.284C90.4481 61.284 92.4661 61.782 94.2501 62.63C96.0446 63.4667 98.0002 63.9015 99.9801 63.904L98.0761 48.29L27.7001 42.294L38.3221 31.39L33.6601 30.966L23.0521 41.894L0.00214697 39.958C-0.137853 47.958 8.62615 61.26 10.5301 63.432Z" fill="white"/>
<path d="M128.844 34.5L120.938 80H112.031L119.938 34.5H128.844ZM139.812 34.5L138.469 42.0938H107.875L109.188 34.5H139.812ZM144.969 34.5L158.688 34.5312C161.417 34.6146 163.708 35.2083 165.562 36.3125C167.438 37.3958 168.823 38.9375 169.719 40.9375C170.635 42.9167 170.979 45.2708 170.75 48C170.542 50.2708 170.052 52.2604 169.281 53.9688C168.51 55.6771 167.427 57.1562 166.031 58.4062C164.635 59.6562 162.927 60.75 160.906 61.6875L157.844 63.3125H145.938L147.25 55.7188L154.812 55.8125C156.208 55.7708 157.396 55.4375 158.375 54.8125C159.354 54.1875 160.125 53.3438 160.688 52.2812C161.271 51.2188 161.646 50.0417 161.812 48.75C161.938 47.7708 161.948 46.7812 161.844 45.7812C161.76 44.7812 161.448 43.9375 160.906 43.25C160.365 42.5625 159.5 42.1875 158.312 42.125L152.594 42.0938L146.031 80H137.094L144.969 34.5ZM157.312 80L152.688 59.7188L161.688 59.6875L166.844 79.5V80H157.312ZM188.594 34.5L180.688 80H171.781L179.688 34.5H188.594ZM212.781 34.5L204.875 80H195.969L203.875 34.5H212.781ZM223.75 34.5L222.406 42.0938H191.812L193.125 34.5H223.75ZM255.625 53.7188L254.531 61.2812C254.135 63.8229 253.469 66.2708 252.531 68.625C251.594 70.9792 250.365 73.0729 248.844 74.9062C247.344 76.7188 245.51 78.1458 243.344 79.1875C241.177 80.2083 238.656 80.6875 235.781 80.625C233.073 80.5625 230.802 79.9792 228.969 78.875C227.156 77.7708 225.74 76.3021 224.719 74.4688C223.719 72.6354 223.062 70.5833 222.75 68.3125C222.438 66.0208 222.427 63.6875 222.719 61.3125L223.844 53.75C224.24 51.1667 224.896 48.6875 225.812 46.3125C226.729 43.9167 227.948 41.7708 229.469 39.875C231.01 37.9792 232.875 36.4896 235.062 35.4062C237.25 34.3021 239.792 33.7917 242.688 33.875C245.458 33.9375 247.75 34.5521 249.562 35.7188C251.375 36.8854 252.781 38.4271 253.781 40.3438C254.781 42.2396 255.417 44.3542 255.688 46.6875C255.958 49 255.938 51.3438 255.625 53.7188ZM245.625 61.3125L246.75 53.5938C246.875 52.5312 246.979 51.3229 247.062 49.9688C247.146 48.6146 247.073 47.3021 246.844 46.0312C246.615 44.7604 246.135 43.6979 245.406 42.8438C244.677 41.9896 243.542 41.5312 242 41.4688C240.354 41.3854 238.969 41.7188 237.844 42.4688C236.74 43.2188 235.844 44.2292 235.156 45.5C234.469 46.75 233.938 48.0938 233.562 49.5312C233.208 50.9688 232.927 52.3438 232.719 53.6562L231.656 61.3438C231.51 62.4271 231.406 63.625 231.344 64.9375C231.281 66.25 231.375 67.5208 231.625 68.75C231.896 69.9583 232.396 70.9688 233.125 71.7812C233.875 72.5729 235.01 73 236.531 73.0625C238.135 73.1458 239.479 72.8229 240.562 72.0938C241.646 71.3646 242.531 70.4167 243.219 69.25C243.927 68.0625 244.458 66.7708 244.812 65.375C245.188 63.9583 245.458 62.6042 245.625 61.3125ZM296.406 34.5L288.5 80H279.812L271.812 49.7188L266.562 80H257.625L265.5 34.5H274.219L282.281 64.8125L287.531 34.5H296.406Z" fill="white"/>
</svg>
