<svg width="279" height="81" viewBox="0 0 279 81" fill="none" xmlns="http://www.w3.org/2000/svg">
<path d="M0 80.5337H30.1887L55 40.5337L30.1887 0.533698L0 0.533697L24.8113 40.5337L0 80.5337Z" fill="white"/>
<path d="M75.1887 80.5337H45L69.8113 40.5337L45 0.533691L75.1887 0.533693L100 40.5337L75.1887 80.5337Z" fill="white"/>
<path d="M120.189 80.5337H90L114.811 40.5337L90 0.533693L120.189 0.533695L145 40.5337L120.189 80.5337Z" fill="white"/>
<path d="M134 80.5337H164.189L189 40.5337L164.189 0.533698L134 0.533697L158.811 40.5337L134 80.5337Z" fill="white"/>
<path d="M209.189 80.5337H179L203.811 40.5337L179 0.533691L209.189 0.533693L234 40.5337L209.189 80.5337Z" fill="white"/>
<path d="M254.189 80.5337H224L248.811 40.5337L224 0.533693L254.189 0.533695L279 40.5337L254.189 80.5337Z" fill="white"/>
</svg>
