<svg width="282" height="330" viewBox="0 0 282 330" fill="none" xmlns="http://www.w3.org/2000/svg">
<path fill-rule="evenodd" clip-rule="evenodd" d="M0 0H377V330H0V0ZM0.589063 0.589286H46.5359V46.5536H0.589063V0.589286ZM47.7141 0.589286H93.6609V46.5536H47.7141V0.589286ZM140.786 0.589286H94.8391V46.5536H140.786V0.589286ZM141.964 0.589286H187.911V46.5536H141.964V0.589286ZM235.036 0.589286H189.089V46.5536H235.036V0.589286ZM236.214 0.589286H282.161V46.5536H236.214V0.589286ZM329.286 0.589286H283.339V46.5536H329.286V0.589286ZM330.464 0.589286H376.411V46.5536H330.464V0.589286ZM46.5359 47.7321H0.589063V93.6964H46.5359V47.7321ZM47.7141 47.7321H93.6609V93.6964H47.7141V47.7321ZM140.786 47.7321H94.8391V93.6964H140.786V47.7321ZM141.964 47.7321H187.911V93.6964H141.964V47.7321ZM235.036 47.7321H189.089V93.6964H235.036V47.7321ZM236.214 47.7321H282.161V93.6964H236.214V47.7321ZM329.286 47.7321H283.339V93.6964H329.286V47.7321ZM330.464 47.7321H376.411V93.6964H330.464V47.7321ZM46.5359 94.875H0.589063V140.839H46.5359V94.875ZM47.7141 94.875H93.6609V140.839H47.7141V94.875ZM140.786 94.875H94.8391V140.839H140.786V94.875ZM141.964 94.875H187.911V140.839H141.964V94.875ZM235.036 94.875H189.089V140.839H235.036V94.875ZM236.214 94.875H282.161V140.839H236.214V94.875ZM329.286 94.875H283.339V140.839H329.286V94.875ZM330.464 94.875H376.411V140.839H330.464V94.875ZM46.5359 142.018H0.589063V187.982H46.5359V142.018ZM47.7141 142.018H93.6609V187.982H47.7141V142.018ZM140.786 142.018H94.8391V187.982H140.786V142.018ZM141.964 142.018H187.911V187.982H141.964V142.018ZM235.036 142.018H189.089V187.982H235.036V142.018ZM236.214 142.018H282.161V187.982H236.214V142.018ZM329.286 142.018H283.339V187.982H329.286V142.018ZM330.464 142.018H376.411V187.982H330.464V142.018ZM46.5359 189.161H0.589063V235.125H46.5359V189.161ZM47.7141 189.161H93.6609V235.125H47.7141V189.161ZM140.786 189.161H94.8391V235.125H140.786V189.161ZM141.964 189.161H187.911V235.125H141.964V189.161ZM235.036 189.161H189.089V235.125H235.036V189.161ZM236.214 189.161H282.161V235.125H236.214V189.161ZM329.286 189.161H283.339V235.125H329.286V189.161ZM330.464 189.161H376.411V235.125H330.464V189.161ZM46.5359 236.304H0.589063V282.268H46.5359V236.304ZM47.7141 236.304H93.6609V282.268H47.7141V236.304ZM140.786 236.304H94.8391V282.268H140.786V236.304ZM141.964 236.304H187.911V282.268H141.964V236.304ZM235.036 236.304H189.089V282.268H235.036V236.304ZM236.214 236.304H282.161V282.268H236.214V236.304ZM329.286 236.304H283.339V282.268H329.286V236.304ZM330.464 236.304H376.411V282.268H330.464V236.304ZM46.5359 283.446H0.589063V329.411H46.5359V283.446ZM47.7141 283.446H93.6609V329.411H47.7141V283.446ZM140.786 283.446H94.8391V329.411H140.786V283.446ZM141.964 283.446H187.911V329.411H141.964V283.446ZM235.036 283.446H189.089V329.411H235.036V283.446ZM236.214 283.446H282.161V329.411H236.214V283.446ZM329.286 283.446H283.339V329.411H329.286V283.446ZM330.464 283.446H376.411V329.411H330.464V283.446Z" fill="white"/>
</svg>
